<svg xmlns="http://www.w3.org/2000/svg" width="1800" height="1320" viewBox="0 0 1800 1320" role="img" aria-labelledby="title desc">
  <title id="title">Arquitetura de Transição</title>
  <desc id="desc">Evolução da solução em três fases, com cards amplos e ícones legíveis.</desc>
  <defs>
    <linearGradient id="bg" x1="0%" y1="0%" x2="100%" y2="100%">
      <stop offset="0%" stop-color="#f8fafc"/>
      <stop offset="100%" stop-color="#edf2f7"/>
    </linearGradient>
    <filter id="shadow" x="-20%" y="-20%" width="140%" height="140%">
      <feDropShadow dx="0" dy="14" stdDeviation="18" flood-color="#0f172a" flood-opacity="0.10"/>
    </filter>
    <marker id="arrow" viewBox="0 0 12 12" refX="10" refY="6" markerWidth="10" markerHeight="10" orient="auto">
      <path d="M 0 0 L 12 6 L 0 12 z" fill="#94a3b8"/>
    </marker>
    <style>
      .title { font: 700 34px 'Aptos', 'Segoe UI', Arial, sans-serif; fill: #0f172a; }
      .subtitle { font: 400 18px 'Aptos', 'Segoe UI', Arial, sans-serif; fill: #475569; }
      .phase { font: 700 28px 'Aptos', 'Segoe UI', Arial, sans-serif; fill: #ffffff; }
      .phase-sub { font: 400 15px 'Aptos', 'Segoe UI', Arial, sans-serif; fill: #64748b; }
      .node-title { font: 700 20px 'Aptos', 'Segoe UI', Arial, sans-serif; fill: #0f172a; }
      .node-sub { font: 400 15px 'Aptos', 'Segoe UI', Arial, sans-serif; fill: #475569; }
      .stable { font: 700 17px 'Aptos', 'Segoe UI', Arial, sans-serif; fill: #ffffff; }
    </style>
  </defs>

  <rect width="1800" height="1320" fill="url(#bg)"/>
  <text x="900" y="82" text-anchor="middle" class="title">Arquitetura de Transição</text>
  <text x="900" y="118" text-anchor="middle" class="subtitle">Mapa de evolução do desenho atual para uma arquitetura AWS mais robusta, preservando os mesmos domínios centrais</text>

  <g filter="url(#shadow)">
    <rect x="70" y="170" width="500" height="920" rx="30" fill="#ffffff" stroke="#dbe4f0"/>
    <rect x="100" y="198" width="440" height="94" rx="20" fill="#0f172a"/>
    <text x="320" y="238" text-anchor="middle" class="phase">Fase 1</text>
    <text x="320" y="272" text-anchor="middle" class="phase">MVP produtizável</text>
    <text x="320" y="340" text-anchor="middle" class="phase-sub">Referência mínima de deploy do desenho atual</text>
    <text x="320" y="366" text-anchor="middle" class="phase-sub">(não representa o estado já implementado)</text>
  </g>

  <g filter="url(#shadow)">
    <rect x="650" y="170" width="500" height="920" rx="30" fill="#ffffff" stroke="#dbe4f0"/>
    <rect x="680" y="198" width="440" height="94" rx="20" fill="#1d4ed8"/>
    <text x="900" y="238" text-anchor="middle" class="phase">Fase 2</text>
    <text x="900" y="272" text-anchor="middle" class="phase">Escala controlada</text>
    <text x="900" y="352" text-anchor="middle" class="phase-sub">Mais isolamento, replay controlado e escala seletiva</text>
  </g>

  <g filter="url(#shadow)">
    <rect x="1230" y="170" width="500" height="920" rx="30" fill="#ffffff" stroke="#dbe4f0"/>
    <rect x="1260" y="198" width="440" height="94" rx="20" fill="#1e40af"/>
    <text x="1480" y="238" text-anchor="middle" class="phase">Fase 3</text>
    <text x="1480" y="272" text-anchor="middle" class="phase">Maturidade operacional</text>
    <text x="1480" y="352" text-anchor="middle" class="phase-sub">Resiliência, governança, observabilidade e analytics</text>
  </g>

  <g filter="url(#shadow)">
    <rect x="175" y="430" width="290" height="118" rx="22" fill="#ffffff" stroke="#dbe4f0"/>
    <rect x="205" y="454" width="56" height="56" rx="14" fill="#8c4fff"/>
    <path d="M221 470h24M221 482h24M221 494h24" stroke="#fff" stroke-width="4" stroke-linecap="round"/>
    <text x="335" y="484" text-anchor="middle" class="node-title">API Gateway</text>
    <text x="335" y="514" text-anchor="middle" class="node-sub">Borda única</text>
  </g>
  <g filter="url(#shadow)">
    <rect x="175" y="625" width="290" height="118" rx="22" fill="#ffffff" stroke="#dbe4f0"/>
    <rect x="205" y="649" width="56" height="56" rx="14" fill="#ed7100"/>
    <rect x="221" y="665" width="24" height="24" rx="5" fill="#fff"/>
    <rect x="227" y="671" width="12" height="12" rx="3" fill="#ed7100"/>
    <text x="335" y="679" text-anchor="middle" class="node-title">ECS Fargate</text>
    <text x="335" y="709" text-anchor="middle" class="node-sub">Ledger + Daily Balance</text>
  </g>
  <g filter="url(#shadow)">
    <rect x="175" y="820" width="290" height="118" rx="22" fill="#ffffff" stroke="#dbe4f0"/>
    <rect x="205" y="844" width="56" height="56" rx="14" fill="#e7157b"/>
    <path d="M221 860h24M221 872h18M221 884h24" stroke="#fff" stroke-width="4" stroke-linecap="round"/>
    <text x="335" y="874" text-anchor="middle" class="node-title">Amazon SQS</text>
    <text x="335" y="904" text-anchor="middle" class="node-sub">Desacoplamento básico</text>
  </g>
  <g filter="url(#shadow)">
    <rect x="115" y="955" width="180" height="104" rx="22" fill="#ffffff" stroke="#dbe4f0"/>
    <rect x="135" y="976" width="48" height="48" rx="14" fill="#c925d1"/>
    <ellipse cx="159" cy="991" rx="14" ry="6" fill="#fff"/>
    <rect x="145" y="991" width="28" height="17" fill="#fff"/>
    <ellipse cx="159" cy="1008" rx="14" ry="6" fill="#fff"/>
    <text x="228" y="999" text-anchor="middle" class="node-title">Amazon RDS</text>
    <text x="228" y="1026" text-anchor="middle" class="node-sub">Schemas separados</text>
  </g>
  <g filter="url(#shadow)">
    <rect x="345" y="955" width="180" height="104" rx="22" fill="#ffffff" stroke="#dbe4f0"/>
    <rect x="365" y="976" width="48" height="48" rx="14" fill="#e7157b"/>
    <circle cx="389" cy="1000" r="14" fill="none" stroke="#fff" stroke-width="4"/>
    <path d="M389 1000 L397 992" stroke="#fff" stroke-width="4" stroke-linecap="round"/>
    <text x="458" y="999" text-anchor="middle" class="node-title">CloudWatch</text>
    <text x="458" y="1026" text-anchor="middle" class="node-sub">Logs básicos</text>
  </g>

  <g filter="url(#shadow)">
    <rect x="730" y="430" width="340" height="118" rx="22" fill="#ffffff" stroke="#dbe4f0"/>
    <rect x="760" y="454" width="56" height="56" rx="14" fill="#8c4fff"/>
    <path d="M776 470h24M776 482h24M776 494h24" stroke="#fff" stroke-width="4" stroke-linecap="round"/>
    <text x="920" y="484" text-anchor="middle" class="node-title">API Gateway</text>
    <text x="920" y="514" text-anchor="middle" class="node-sub">Mesma borda de entrada</text>
  </g>
  <g filter="url(#shadow)">
    <rect x="695" y="650" width="190" height="118" rx="22" fill="#ffffff" stroke="#dbe4f0"/>
    <rect x="720" y="674" width="52" height="52" rx="14" fill="#ed7100"/>
    <rect x="735" y="689" width="22" height="22" rx="5" fill="#fff"/>
    <rect x="741" y="695" width="10" height="10" rx="3" fill="#ed7100"/>
    <text x="815" y="707" text-anchor="middle" class="node-title">Ledger em ECS</text>
  </g>
  <g filter="url(#shadow)">
    <rect x="915" y="650" width="190" height="118" rx="22" fill="#ffffff" stroke="#dbe4f0"/>
    <rect x="940" y="674" width="52" height="52" rx="14" fill="#ed7100"/>
    <rect x="955" y="689" width="22" height="22" rx="5" fill="#fff"/>
    <rect x="961" y="695" width="10" height="10" rx="3" fill="#ed7100"/>
    <text x="1035" y="700" text-anchor="middle" class="node-title">Daily Balance</text>
    <text x="1035" y="728" text-anchor="middle" class="node-sub">em ECS com escala própria</text>
  </g>
  <g filter="url(#shadow)">
    <rect x="780" y="845" width="250" height="118" rx="22" fill="#ffffff" stroke="#dbe4f0"/>
    <rect x="810" y="869" width="56" height="56" rx="14" fill="#e7157b"/>
    <path d="M826 885h24M826 897h18M826 909h24" stroke="#fff" stroke-width="4" stroke-linecap="round"/>
    <text x="942" y="899" text-anchor="middle" class="node-title">Amazon SQS</text>
    <text x="942" y="929" text-anchor="middle" class="node-sub">Replay controlado</text>
  </g>
  <g filter="url(#shadow)">
    <rect x="690" y="980" width="170" height="104" rx="22" fill="#ffffff" stroke="#dbe4f0"/>
    <rect x="710" y="1001" width="48" height="48" rx="14" fill="#c925d1"/>
    <ellipse cx="734" cy="1016" rx="14" ry="6" fill="#fff"/>
    <rect x="720" y="1016" width="28" height="17" fill="#fff"/>
    <ellipse cx="734" cy="1033" rx="14" ry="6" fill="#fff"/>
    <text x="795" y="1024" text-anchor="middle" class="node-title">RDS Ledger</text>
  </g>
  <g filter="url(#shadow)">
    <rect x="890" y="980" width="170" height="104" rx="22" fill="#ffffff" stroke="#dbe4f0"/>
    <rect x="910" y="1001" width="48" height="48" rx="14" fill="#c925d1"/>
    <ellipse cx="934" cy="1016" rx="14" ry="6" fill="#fff"/>
    <rect x="920" y="1016" width="28" height="17" fill="#fff"/>
    <ellipse cx="934" cy="1033" rx="14" ry="6" fill="#fff"/>
    <text x="995" y="1024" text-anchor="middle" class="node-title">RDS Balance</text>
  </g>
  <g filter="url(#shadow)">
    <rect x="1090" y="980" width="170" height="104" rx="22" fill="#ffffff" stroke="#dbe4f0"/>
    <rect x="1110" y="1001" width="48" height="48" rx="14" fill="#e7157b"/>
    <circle cx="1134" cy="1025" r="14" fill="none" stroke="#fff" stroke-width="4"/>
    <path d="M1134 1025 L1142 1017" stroke="#fff" stroke-width="4" stroke-linecap="round"/>
    <text x="1195" y="1016" text-anchor="middle" class="node-title">Tracing</text>
    <text x="1195" y="1043" text-anchor="middle" class="node-sub">e dashboards</text>
  </g>

  <g filter="url(#shadow)">
    <rect x="1310" y="430" width="340" height="118" rx="22" fill="#ffffff" stroke="#dbe4f0"/>
    <rect x="1340" y="454" width="56" height="56" rx="14" fill="#8c4fff"/>
    <path d="M1356 470h24M1356 482h24M1356 494h24" stroke="#fff" stroke-width="4" stroke-linecap="round"/>
    <path d="M1380 470l10 10-10 10" stroke="#fff" stroke-width="4" fill="none" stroke-linecap="round" stroke-linejoin="round"/>
    <text x="1500" y="484" text-anchor="middle" class="node-title">API Gateway + segurança</text>
  </g>
  <g filter="url(#shadow)">
    <rect x="1385" y="650" width="230" height="118" rx="22" fill="#ffffff" stroke="#dbe4f0"/>
    <rect x="1410" y="674" width="52" height="52" rx="14" fill="#ed7100"/>
    <rect x="1425" y="689" width="22" height="22" rx="5" fill="#fff"/>
    <rect x="1431" y="695" width="10" height="10" rx="3" fill="#ed7100"/>
    <text x="1530" y="700" text-anchor="middle" class="node-title">ECS em HA</text>
    <text x="1530" y="728" text-anchor="middle" class="node-sub">Deploy mais robusto</text>
  </g>
  <g filter="url(#shadow)">
    <rect x="1300" y="845" width="190" height="118" rx="22" fill="#ffffff" stroke="#dbe4f0"/>
    <rect x="1325" y="869" width="52" height="52" rx="14" fill="#e7157b"/>
    <path d="M1341 885h24M1341 897h18M1341 909h24" stroke="#fff" stroke-width="4" stroke-linecap="round"/>
    <text x="1420" y="899" text-anchor="middle" class="node-title">Replay formal</text>
    <text x="1420" y="929" text-anchor="middle" class="node-sub">de eventos</text>
  </g>
  <g filter="url(#shadow)">
    <rect x="1510" y="845" width="190" height="118" rx="22" fill="#ffffff" stroke="#dbe4f0"/>
    <rect x="1535" y="869" width="52" height="52" rx="14" fill="#c925d1"/>
    <ellipse cx="1561" cy="884" rx="14" ry="6" fill="#fff"/>
    <rect x="1547" y="884" width="28" height="17" fill="#fff"/>
    <ellipse cx="1561" cy="901" rx="14" ry="6" fill="#fff"/>
    <text x="1630" y="899" text-anchor="middle" class="node-title">RDS Multi-AZ</text>
  </g>
  <g filter="url(#shadow)">
    <rect x="1300" y="980" width="190" height="104" rx="22" fill="#ffffff" stroke="#dbe4f0"/>
    <rect x="1325" y="1001" width="48" height="48" rx="14" fill="#0ea5a4"/>
    <path d="M1339 1033l8-12 8 8 14-20" stroke="#fff" stroke-width="4" fill="none" stroke-linecap="round" stroke-linejoin="round"/>
    <text x="1420" y="1016" text-anchor="middle" class="node-title">Analytics</text>
    <text x="1420" y="1043" text-anchor="middle" class="node-sub">downstream</text>
  </g>
  <g filter="url(#shadow)">
    <rect x="1510" y="980" width="190" height="104" rx="22" fill="#ffffff" stroke="#dbe4f0"/>
    <rect x="1535" y="1001" width="48" height="48" rx="14" fill="#e7157b"/>
    <circle cx="1559" cy="1025" r="14" fill="none" stroke="#fff" stroke-width="4"/>
    <path d="M1559 1025 L1567 1017" stroke="#fff" stroke-width="4" stroke-linecap="round"/>
    <text x="1630" y="1016" text-anchor="middle" class="node-title">Observabilidade</text>
    <text x="1630" y="1043" text-anchor="middle" class="node-sub">por SLO</text>
  </g>

  <path d="M320 548V625" stroke="#94a3b8" stroke-width="4" fill="none" marker-end="url(#arrow)"/>
  <path d="M320 743V820" stroke="#94a3b8" stroke-width="4" fill="none" marker-end="url(#arrow)"/>

  <path d="M900 548L815 650" stroke="#94a3b8" stroke-width="4" fill="none" marker-end="url(#arrow)"/>
  <path d="M900 548L995 650" stroke="#94a3b8" stroke-width="4" fill="none" marker-end="url(#arrow)"/>
  <path d="M1035 768L942 845" stroke="#94a3b8" stroke-width="4" fill="none" marker-end="url(#arrow)"/>
  <path d="M790 768V980" stroke="#94a3b8" stroke-width="4" fill="none" marker-end="url(#arrow)"/>
  <path d="M1010 768V980" stroke="#94a3b8" stroke-width="4" fill="none" marker-end="url(#arrow)"/>

  <path d="M1480 548V650" stroke="#94a3b8" stroke-width="4" fill="none" marker-end="url(#arrow)"/>
  <path d="M1530 768L1420 845" stroke="#94a3b8" stroke-width="4" fill="none" marker-end="url(#arrow)"/>
  <path d="M1530 768L1630 845" stroke="#94a3b8" stroke-width="4" fill="none" marker-end="url(#arrow)"/>
  <path d="M1395 963V980" stroke="#94a3b8" stroke-width="4" fill="none" marker-end="url(#arrow)"/>
  <path d="M1605 963V980" stroke="#94a3b8" stroke-width="4" fill="none" marker-end="url(#arrow)"/>

  <g filter="url(#shadow)">
    <rect x="170" y="1160" width="1460" height="96" rx="22" fill="#0f172a"/>
    <text x="900" y="1200" text-anchor="middle" class="stable">Bounded contexts `Ledger` e `Daily Balance` | Transactional Outbox | Evento `entry-created`</text>
    <text x="900" y="1232" text-anchor="middle" class="stable">Idempotência | Separação entre escrita transacional e leitura agregada</text>
  </g>
</svg>
